<svg version="1.1" xmlns="http://www.w3.org/2000/svg" viewBox="0 0 1024 1024" preserveAspectRatio="xMidYMid meet" xmlns:xlink="http://www.w3.org/1999/xlink">


<path d="M0 0 C2.086 -0.002 4.171 -0.006 6.257 -0.012 C11.895 -0.021 17.533 -0.006 23.171 0.014 C29.083 0.032 34.995 0.028 40.908 0.028 C50.832 0.03 60.756 0.047 70.68 0.074 C82.143 0.106 93.605 0.116 105.068 0.115 C117.291 0.113 129.513 0.127 141.736 0.146 C145.251 0.15 148.765 0.151 152.279 0.152 C157.807 0.154 163.334 0.166 168.861 0.186 C170.886 0.192 172.911 0.195 174.936 0.194 C177.706 0.193 180.476 0.204 183.247 0.218 C184.042 0.215 184.837 0.212 185.656 0.209 C197.067 0.307 203.972 3.239 212.091 11.173 C218.448 19.476 218.921 29.323 218.843 39.367 C218.847 40.726 218.852 42.084 218.859 43.442 C218.873 47.097 218.862 50.751 218.846 54.406 C218.832 58.247 218.838 62.088 218.842 65.93 C218.845 72.374 218.831 78.819 218.808 85.263 C218.781 92.699 218.78 100.134 218.791 107.569 C218.802 114.746 218.796 121.924 218.782 129.102 C218.776 132.146 218.776 135.19 218.781 138.234 C218.786 141.82 218.775 145.406 218.754 148.992 C218.746 150.925 218.752 152.859 218.759 154.792 C218.675 164.635 217.1 171.414 210.216 178.728 C199.686 188.6 184.086 186.776 170.648 186.745 C168.666 186.747 166.684 186.751 164.702 186.755 C159.344 186.764 153.987 186.761 148.63 186.754 C143.007 186.749 137.385 186.754 131.762 186.757 C122.321 186.761 112.881 186.756 103.44 186.747 C92.546 186.736 81.653 186.739 70.76 186.75 C61.386 186.759 52.011 186.761 42.637 186.755 C37.047 186.752 31.458 186.752 25.869 186.758 C20.611 186.764 15.354 186.76 10.097 186.749 C8.175 186.746 6.253 186.747 4.331 186.751 C-24.326 186.811 -24.326 186.811 -34.659 178.486 C-42.908 170.045 -44.109 160.965 -44.17 149.615 C-44.189 148.336 -44.207 147.057 -44.226 145.74 C-44.275 142.24 -44.305 138.74 -44.33 135.24 C-44.352 132.299 -44.382 129.358 -44.412 126.417 C-44.474 120.198 -44.526 113.98 -44.567 107.762 C-44.621 99.453 -44.71 91.145 -44.825 82.836 C-44.916 76.162 -44.984 69.489 -45.034 62.814 C-45.065 58.799 -45.105 54.785 -45.169 50.77 C-45.229 46.978 -45.259 43.187 -45.268 39.395 C-45.276 38.008 -45.294 36.621 -45.323 35.234 C-45.535 24.941 -43.688 16.719 -37.106 8.561 C-26.994 -1.184 -12.982 -0.078 0 0 Z M10.341 25.486 C7.701 30.766 5.061 36.046 2.341 41.486 C-2.892 48.128 -9.041 51.016 -16.659 54.486 C-18.639 55.476 -18.639 55.476 -20.659 56.486 C-20.659 80.906 -20.659 105.326 -20.659 130.486 C-17.359 131.476 -14.059 132.466 -10.659 133.486 C0.715 140.786 6.673 149.646 10.341 162.486 C61.161 162.486 111.981 162.486 164.341 162.486 C165.991 158.526 167.641 154.566 169.341 150.486 C174.584 141.596 180.551 135.229 190.341 131.486 C192.005 131.139 193.672 130.804 195.341 130.486 C195.365 122.774 195.382 115.063 195.393 107.351 C195.398 103.769 195.405 100.186 195.417 96.604 C195.428 93.135 195.434 89.666 195.436 86.197 C195.439 84.256 195.447 82.314 195.455 80.372 C195.455 72.026 195.045 63.802 194.341 55.486 C193.579 55.241 192.817 54.996 192.031 54.743 C181.723 51.362 175.212 46.618 169.341 37.486 C167.691 33.526 166.041 29.566 164.341 25.486 C113.521 25.486 62.701 25.486 10.341 25.486 Z " fill="#10922E" transform="translate(158.65869140625,459.51416015625)"></path>
<path d="M0 0 C13.53 0 27.06 0 41 0 C42.221 2.828 43.441 5.656 44.699 8.57 C48.993 18.518 53.289 28.464 57.585 38.41 C59.035 41.767 60.485 45.123 61.934 48.48 C67.986 62.501 74.078 76.504 80.226 90.483 C80.904 92.027 81.582 93.57 82.26 95.115 C83.197 97.251 84.137 99.385 85.078 101.52 C85.501 102.484 85.501 102.484 85.932 103.469 C87.127 106.449 87.127 106.449 89 109 C96.754 91.225 104.406 73.407 112 55.562 C112.428 54.557 112.856 53.551 113.297 52.515 C117.602 42.397 121.896 32.274 126.137 22.129 C126.601 21.018 126.601 21.018 127.075 19.885 C128.49 16.499 129.901 13.111 131.307 9.721 C131.787 8.568 132.267 7.415 132.762 6.227 C133.174 5.232 133.586 4.238 134.01 3.213 C135 1 135 1 136 0 C148.87 0 161.74 0 175 0 C175 55.77 175 111.54 175 169 C164.44 169 153.88 169 143 169 C142.67 132.37 142.34 95.74 142 58 C138.04 67.24 134.08 76.48 130 86 C124.854 97.647 119.671 109.276 114.461 120.895 C114.166 121.553 113.871 122.211 113.567 122.889 C112.138 126.075 110.708 129.262 109.276 132.447 C108.761 133.594 108.246 134.74 107.715 135.922 C107.262 136.928 106.81 137.935 106.344 138.972 C104.866 142.302 103.435 145.652 102 149 C92.76 149 83.52 149 74 149 C68.15 137.479 62.652 125.855 57.375 114.062 C56.991 113.207 56.608 112.352 56.212 111.471 C50.99 99.821 45.826 88.145 40.8 76.408 C40.187 74.978 39.572 73.549 38.955 72.12 C38.105 70.151 37.266 68.178 36.43 66.203 C35.958 65.096 35.486 63.989 35 62.849 C34 60 34 60 34 56 C33.34 56 32.68 56 32 56 C32 93.29 32 130.58 32 169 C21.44 169 10.88 169 0 169 C0 113.23 0 57.46 0 0 Z " fill="#0A0B0B" transform="translate(450,422)"></path>
<path d="M0 0 C32.67 0 65.34 0 99 0 C99 9.9 99 19.8 99 30 C77.22 30 55.44 30 33 30 C33 43.2 33 56.4 33 70 C45.682 69.673 45.682 69.673 58.365 69.342 C69.581 69.055 80.78 68.954 92 69 C92 79.23 92 89.46 92 100 C84.915 100.247 84.915 100.247 77.688 100.5 C76.263 100.552 74.838 100.604 73.37 100.658 C59.915 101.102 46.461 101.049 33 101 C33.002 101.837 33.004 102.674 33.007 103.537 C33.027 111.41 33.042 119.282 33.052 127.155 C33.057 131.203 33.064 135.251 33.075 139.299 C33.086 143.202 33.092 147.106 33.095 151.009 C33.097 152.501 33.1 153.994 33.106 155.486 C33.113 157.569 33.114 159.653 33.114 161.736 C33.116 162.924 33.118 164.112 33.12 165.336 C33 168 33 168 32 169 C21.44 169 10.88 169 0 169 C0 113.23 0 57.46 0 0 Z " fill="#0C0D0D" transform="translate(769,422)"></path>
<path d="M0 0 C10.89 0 21.78 0 33 0 C35.602 6.505 38.105 12.963 40.391 19.574 C40.85 20.893 40.85 20.893 41.318 22.239 C42.298 25.054 43.274 27.871 44.25 30.688 C44.922 32.622 45.595 34.557 46.268 36.491 C47.584 40.278 48.899 44.064 50.213 47.852 C52.108 53.312 54.007 58.77 55.907 64.228 C57.273 68.151 58.637 72.076 60 76 C62.275 71.691 64.006 67.361 65.496 62.734 C65.726 62.035 65.956 61.336 66.193 60.615 C66.687 59.111 67.18 57.605 67.671 56.099 C68.981 52.083 70.308 48.072 71.637 44.062 C71.91 43.238 72.183 42.413 72.465 41.563 C77.099 27.635 82.078 13.828 87 0 C98.22 0 109.44 0 121 0 C116.3 13.624 111.364 27.127 106.211 40.585 C104.102 46.095 102.003 51.608 99.902 57.121 C99.271 58.777 99.271 58.777 98.627 60.467 C94.904 70.236 91.225 80.021 87.562 89.812 C81.928 104.867 76.277 119.916 70.608 134.958 C69.71 137.342 68.812 139.727 67.915 142.112 C66.658 145.452 65.4 148.79 64.141 152.129 C63.766 153.125 63.392 154.121 63.006 155.147 C62.654 156.08 62.302 157.014 61.938 157.975 C61.635 158.78 61.332 159.586 61.019 160.415 C59.748 163.638 58.365 166.816 57 170 C46.11 170 35.22 170 24 170 C25.671 165.421 27.341 160.842 29.062 156.125 C29.605 154.634 30.147 153.143 30.706 151.607 C32.827 145.795 34.959 140 37.324 134.281 C37.655 133.477 37.985 132.672 38.326 131.843 C38.92 130.416 39.529 128.995 40.156 127.583 C43.81 118.784 40.112 110.821 36.984 102.418 C36.577 101.303 36.169 100.187 35.75 99.038 C34.425 95.418 33.087 91.803 31.75 88.188 C30.833 85.691 29.917 83.193 29.001 80.696 C26.75 74.564 24.49 68.437 22.224 62.311 C21.118 59.319 20.013 56.326 18.91 53.333 C12.26 35.294 12.26 35.294 5.434 17.32 C5.049 16.322 4.665 15.324 4.269 14.295 C3.578 12.509 2.882 10.725 2.181 8.943 C0 3.326 0 3.326 0 0 Z " fill="#0B0C0C" transform="translate(637,468)"></path>
<path d="M0 0 C2.101 -0.01 4.2 -0.041 6.301 -0.072 C7.642 -0.079 8.984 -0.084 10.326 -0.088 C11.544 -0.097 12.762 -0.107 14.017 -0.116 C17.589 0.271 19.458 1.091 22.306 3.24 C24.025 6.677 23.463 10.633 23.468 14.416 C23.475 15.843 23.475 15.843 23.483 17.299 C23.497 20.455 23.504 23.611 23.51 26.768 C23.515 28.955 23.521 31.142 23.527 33.329 C23.537 37.918 23.543 42.507 23.547 47.096 C23.552 52.986 23.576 58.875 23.605 64.765 C23.623 69.283 23.628 73.801 23.63 78.32 C23.633 80.491 23.641 82.663 23.654 84.835 C23.671 87.869 23.669 90.902 23.663 93.935 C23.677 95.289 23.677 95.289 23.691 96.67 C23.685 97.496 23.68 98.322 23.674 99.172 C23.675 99.89 23.677 100.607 23.678 101.346 C23.186 103.852 22.341 104.73 20.306 106.24 C17.459 106.514 14.835 106.613 11.99 106.568 C10.772 106.566 10.772 106.566 9.529 106.563 C7.813 106.556 6.097 106.542 4.382 106.521 C1.75 106.49 -0.88 106.481 -3.512 106.475 C-5.178 106.465 -6.844 106.455 -8.51 106.443 C-9.3 106.439 -10.089 106.435 -10.903 106.43 C-16.459 106.357 -16.459 106.357 -18.694 105.24 C-18.786 92.271 -18.857 79.302 -18.901 66.332 C-18.922 60.31 -18.95 54.289 -18.995 48.267 C-19.039 42.457 -19.063 36.648 -19.073 30.838 C-19.081 28.62 -19.095 26.401 -19.117 24.183 C-19.145 21.08 -19.15 17.977 -19.148 14.874 C-19.162 13.953 -19.176 13.033 -19.191 12.084 C-19.151 5.85 -19.151 5.85 -16.79 2.701 C-11.689 -0.852 -6.001 0.017 0 0 Z " fill="#0D912D" transform="translate(329.693603515625,335.759765625)"></path>
<path d="M0 0 C10.23 0 20.46 0 31 0 C31 40.26 31 80.52 31 122 C20.44 122 9.88 122 -1 122 C-1.023 111.704 -1.041 101.408 -1.052 91.112 C-1.057 86.327 -1.064 81.541 -1.075 76.755 C-1.136 51.151 -0.821 25.591 0 0 Z " fill="#0B0B0B" transform="translate(888,468)"></path>
<path d="M0 0 C1.5 0.004 1.5 0.004 3.031 0.008 C4.032 0.005 5.032 0.003 6.062 0 C8.531 0.133 8.531 0.133 9.531 1.133 C9.986 3.787 10.234 6.455 10.531 9.133 C11.293 9.389 12.055 9.646 12.84 9.91 C21.274 13.037 28.515 17.29 32.773 25.539 C33.64 28.507 33.674 31.057 33.531 34.133 C30.612 34.295 27.702 34.414 24.781 34.508 C23.956 34.558 23.131 34.608 22.281 34.66 C19.893 34.718 17.855 34.697 15.531 34.133 C13.117 31.23 13.117 31.23 11.531 28.133 C7.003 24.791 3.187 24.793 -2.188 25.57 C-4.627 26.054 -4.627 26.054 -7.094 27.695 C-8.74 30.613 -9.318 32.728 -9.071 36.072 C-8.092 39.422 -5.782 40.263 -2.88 41.948 C2.104 44.397 7.436 45.816 12.754 47.361 C21.615 50.102 28.087 54.607 33.531 62.133 C36.38 68.213 36.715 74.445 34.656 80.859 C30.718 89.435 25.145 93.755 16.645 97.469 C14.531 98.133 14.531 98.133 10.531 98.133 C10.554 98.759 10.578 99.386 10.602 100.031 C10.62 100.849 10.638 101.666 10.656 102.508 C10.679 103.32 10.703 104.132 10.727 104.969 C10.531 107.133 10.531 107.133 8.531 109.133 C6.219 109.398 6.219 109.398 3.531 109.383 C2.201 109.391 2.201 109.391 0.844 109.398 C-1.469 109.133 -1.469 109.133 -3.469 107.133 C-3.664 104.969 -3.664 104.969 -3.594 102.508 C-3.576 101.691 -3.558 100.873 -3.539 100.031 C-3.516 99.405 -3.493 98.778 -3.469 98.133 C-4.583 98.092 -5.696 98.05 -6.844 98.008 C-13.634 97.152 -19.92 93.254 -24.406 88.133 C-28.017 82.88 -29.638 79.528 -29.469 73.133 C-26.716 72.971 -23.974 72.852 -21.219 72.758 C-20.441 72.708 -19.664 72.657 -18.863 72.605 C-16.591 72.547 -14.675 72.573 -12.469 73.133 C-10.234 75.969 -10.234 75.969 -8.469 79.133 C-3.046 83.401 2.941 82.852 9.531 82.133 C12.619 81.239 13.281 80.633 15.531 78.133 C16.633 75.369 17.2 73.053 16.531 70.133 C13.02 65.676 9.364 64.012 4.031 62.57 C3.331 62.365 2.632 62.159 1.911 61.947 C-1.448 60.963 -4.821 60.036 -8.195 59.105 C-20.994 55.442 -20.994 55.442 -24.707 48.977 C-28.385 40.988 -28.815 33.193 -25.906 24.883 C-22.698 17.84 -18.345 13.677 -11.219 10.695 C-8.356 9.633 -6.547 9.133 -3.469 9.133 C-3.489 7.833 -3.51 6.534 -3.531 5.195 C-3.553 3.841 -3.54 2.485 -3.469 1.133 C-2.469 0.133 -2.469 0.133 0 0 Z " fill="#0E8F2B" transform="translate(243.46875,498.8671875)"></path>
<path d="M0 0 C1.18 -0.014 1.18 -0.014 2.384 -0.027 C4.05 -0.042 5.716 -0.051 7.382 -0.054 C9.929 -0.066 12.473 -0.115 15.02 -0.166 C16.638 -0.175 18.257 -0.183 19.875 -0.188 C21.016 -0.217 21.016 -0.217 22.18 -0.247 C25.811 -0.216 27.621 -0.065 30.273 2.508 C32.408 5.909 32.566 7.792 32.556 11.782 C32.562 13.056 32.568 14.331 32.575 15.644 C32.561 17.026 32.546 18.407 32.531 19.789 C32.529 21.212 32.528 22.635 32.528 24.058 C32.525 27.033 32.509 30.007 32.482 32.982 C32.448 36.799 32.44 40.615 32.442 44.432 C32.441 47.367 32.43 50.302 32.416 53.236 C32.409 54.644 32.406 56.052 32.404 57.46 C32.4 59.423 32.381 61.386 32.361 63.348 C32.349 65.025 32.349 65.025 32.338 66.735 C32.07 69.371 32.07 69.371 30.07 71.371 C27.225 71.571 24.479 71.651 21.633 71.637 C20.797 71.639 19.961 71.641 19.1 71.643 C17.331 71.644 15.563 71.64 13.794 71.632 C11.081 71.621 8.369 71.632 5.656 71.645 C3.94 71.643 2.224 71.641 0.508 71.637 C-0.714 71.643 -0.714 71.643 -1.961 71.649 C-7.7 71.601 -7.7 71.601 -9.93 69.371 C-10.184 66.6 -10.184 66.6 -10.188 63.025 C-10.192 62.375 -10.195 61.724 -10.199 61.054 C-10.208 58.899 -10.202 56.745 -10.195 54.59 C-10.197 53.095 -10.199 51.601 -10.201 50.106 C-10.204 46.972 -10.2 43.839 -10.19 40.705 C-10.179 36.683 -10.186 32.661 -10.198 28.639 C-10.205 25.552 -10.203 22.466 -10.197 19.379 C-10.196 17.896 -10.198 16.413 -10.202 14.93 C-10.207 12.858 -10.2 10.788 -10.188 8.717 C-10.187 7.537 -10.185 6.357 -10.184 5.142 C-9.623 -0.97 -4.93 0.035 0 0 Z " fill="#0F912D" transform="translate(254.9296875,370.62890625)"></path>
<path d="M0 0 C1.182 -0.004 1.182 -0.004 2.387 -0.009 C4.051 -0.011 5.716 -0.005 7.38 0.007 C9.928 0.023 12.475 0.007 15.023 -0.012 C16.641 -0.01 18.258 -0.006 19.875 0 C20.638 -0.006 21.4 -0.012 22.186 -0.018 C25.028 0.019 27.371 0.105 29.923 1.427 C31.559 4.607 31.302 7.859 31.23 11.348 C31.226 12.12 31.222 12.893 31.218 13.689 C31.201 16.155 31.163 18.62 31.125 21.086 C31.11 22.758 31.096 24.431 31.084 26.104 C31.051 30.202 30.999 34.3 30.938 38.398 C27.677 40.029 24.083 39.562 20.5 39.566 C19.246 39.571 19.246 39.571 17.967 39.576 C16.198 39.582 14.43 39.584 12.661 39.584 C9.948 39.586 7.236 39.604 4.523 39.623 C2.807 39.626 1.091 39.628 -0.625 39.629 C-1.44 39.636 -2.254 39.643 -3.094 39.651 C-8.834 39.627 -8.834 39.627 -11.062 37.398 C-11.274 34.853 -11.366 32.418 -11.363 29.871 C-11.368 29.126 -11.372 28.382 -11.376 27.614 C-11.382 26.038 -11.383 24.462 -11.378 22.886 C-11.375 20.474 -11.398 18.063 -11.424 15.65 C-11.426 14.12 -11.427 12.589 -11.426 11.059 C-11.435 10.337 -11.444 9.615 -11.454 8.871 C-11.428 6.124 -11.327 3.905 -10.044 1.445 C-6.841 -0.246 -3.534 -0.028 0 0 Z " fill="#0D902B" transform="translate(189.0625,402.6015625)"></path>
<path d="M0 0 C4.601 2.638 8.151 5.914 9.641 11.129 C10.572 17.526 10.846 23.3 7.016 28.754 C3.481 32.641 0.396 34.799 -4.938 35.438 C-11.335 35.726 -15.237 34.997 -20.359 31.129 C-25.469 25.482 -25.653 21.81 -25.57 14.332 C-25.21 8.858 -23.362 5.851 -19.359 2.316 C-13.771 -1.759 -6.526 -2.409 0 0 Z " fill="#0B0C0C" transform="translate(911.359375,417.87109375)"></path>
<path d="M0 0 C0.33 0 0.66 0 1 0 C1.845 3.665 2.122 7.042 2.114 10.8 C2.113 11.941 2.113 13.082 2.113 14.257 C2.108 15.478 2.103 16.699 2.098 17.957 C2.096 19.215 2.095 20.473 2.093 21.769 C2.089 25.102 2.08 28.434 2.069 31.766 C2.058 35.172 2.054 38.577 2.049 41.982 C2.038 48.655 2.021 55.327 2 62 C1.01 62 0.02 62 -1 62 C-2.144 48.464 -1.975 35.001 -1.625 21.438 C-1.604 20.553 -1.582 19.668 -1.56 18.757 C-1.497 16.212 -1.426 13.666 -1.352 11.121 C-1.332 10.347 -1.312 9.573 -1.291 8.775 C-1.189 5.616 -1.006 3.017 0 0 Z M-4 41 C-2 42 -2 42 -2 42 Z M-37 61 C-25.12 61.33 -13.24 61.66 -1 62 C-1 62.33 -1 62.66 -1 63 C-12.88 63 -24.76 63 -37 63 C-37 62.34 -37 61.68 -37 61 Z " fill="#21993D" transform="translate(351,377)"></path>
<path d="M0 0 C0.66 0 1.32 0 2 0 C1.67 0.66 1.34 1.32 1 2 C0.67 1.34 0.34 0.68 0 0 Z M-4 4 C-2.68 4 -1.36 4 0 4 C-1.75 7.875 -1.75 7.875 -4 9 C-4 7.35 -4 5.7 -4 4 Z " fill="#169A38" transform="translate(371,628)"></path>

</svg>
