<svg version="1.1" id="Layer_1" xmlns="http://www.w3.org/2000/svg" xmlns:xlink="http://www.w3.org/1999/xlink" x="0px" y="0px" viewBox="-724.7 282.6 445.7 517.2" style="enable-background:new -724.7 282.6 445.7 517.2;" xml:space="preserve">
 <style type="text/css">
  .st0{fill:#0059B3;}
	.st1{fill:none;stroke:#FFFFFF;stroke-width:11.3265;}
	.st2{fill:#FFDF01;}
	.st3{fill:#FFFFFF;}
 </style>
 <g>
  <path class="st0" d="M-334.2,732.1c0,16.7-6.9,26.4-20.2,31.6c-52,20-113.6,30.4-172.2,30.4c-58.6,0-120.2-10.3-172.2-30.4
		c-13.4-5.1-20.2-14.8-20.2-31.6V288.2h384.8V732.1">
  </path>
  <path class="st1" d="M-334.2,732.1c0,16.7-6.9,26.4-20.2,31.6c-52,20-113.6,30.4-172.2,30.4c-58.6,0-120.2-10.3-172.2-30.4
		c-13.4-5.1-20.2-14.8-20.2-31.6V288.2h384.8V732.1z">
  </path>
  <path class="st2" d="M-615.9,558.7c-53.3-33.3-70.9-48-72.4-69.8c-0.2-4.4,0.8-11.9,2.6-17.3l-5-3.3c-4.2,6.8-6.5,14.6-6.6,22.6
		c0,12.6,4,22.2,9,29.8c7.5,11.5,15.4,18.8,34.8,33.3c20.9,15.7,35.2,34,43.4,53.2h3v-21.7c28.3,16,53.2,31.1,65.4,58.1h3
		C-543.6,615.6-559.3,594-615.9,558.7 M-459.5,486c-11.7,5.2-19.7,12.3-26.9,22.5l23.8-1.2C-461.7,496.7-460.3,489.7-459.5,486
		L-459.5,486z M-373.7,571c2.5-5.9,4-12.1,4.4-18.5l-34.8-2c-1.4,8.6-3.7,17-6.9,25.2L-373.7,571z M-411.3,484.7
		c2.5,6.7,4.4,13.2,5.8,19.5l20.5-1.1C-392.2,494.8-401.2,488.5-411.3,484.7z M-420.6,505c-2.4-8.5-5.7-16.7-9.9-24.5
		c-1.4-0.1-2.8-0.1-4.2-0.1c-2.3,0-4.7,0.3-7,0.6c-3.4,8.4-6.1,17-8.4,25.6L-420.6,505z M-403.5,515.9c1.1,8.7,1.2,16.9,0.6,24.5
		l33.5-1.8c-0.8-7.4-3-14.7-6.3-21.4L-403.5,515.9z M-414.9,541c-0.3-8.7-1.3-17.3-3.1-25.8l-33.8-1.5c-2.3,10.3-3.9,20.3-4.6,29.5
		L-414.9,541z M-409.7,468.7l4-5.6l-6.1-8.2l1-1.8l17.3,9.3l-3.8,11.4c2.8,1.3,5.3,3,8.8,5.3l11.1-18.3l-28.9-15.1h-63.8l-51.8,31.1
		c9.7,6.8,18.7,14,25,21.4c13.9-20.2,38.2-33.1,62.4-33.1C-426.6,465.2-417.4,466.1-409.7,468.7z M-537.4,466.9l28.6-17.1
		c-5.9-3-12.5-4.6-19.2-4.7c-9.9-0.1-26.5,4.4-34.5,5.6C-558.9,453.2-546.1,461.3-537.4,466.9L-537.4,466.9z M-531.5,402.3
		c-10.1-2.2-15.8-1-21.6,4.6c2.9,1.4,6.4,2.1,10.4,1.8C-537.1,408.4-533.5,404.9-531.5,402.3z M-370.4,643.5h-3.6
		c0-19.9-18.2-25.3-37.3-25.3H-471c1.9,9.8,2.8,21.3,1.3,32.1h-3c-5.5-44.7-30.8-66.8-66.1-90.5v20.3h-3c-9.4-21-30-40.7-49.5-54.6
		l-15.9-11.3v21.9h-3c-8.3-21.7-23.3-38-44.7-57.3c-23.1-20.8-32.5-33.3-37.9-47.6c-3.3-8.7-4.2-15.7-4.3-25.2
		c-0.2-17,8.4-32.5,19.1-38.2v8.3c-5.3,7.1-8.1,16-8.1,25.1c0,8.4,2,17.7,6.2,25.6c13,24.8,56.9,55.3,84.8,73.9
		c86.7,58.1,104,68.3,118.4,99.1c1.6,3.4,3.2,8.1,4.5,13.4c12.5-1.9,57.9-8.8,66.3-10.2c1.6-0.2,5-0.7,6.7-0.8
		c7.8-4.9,13.9-11.2,19.3-19.1l-33.2-2.6c-1.7,3.8-3.4,7-4.9,9.6h-2.7c0.9-3.4,1.7-6.7,2.4-10l-8.5-0.6v-1.8l9.2-1.1
		c1.7-9.4,2.6-18.3,2.8-26.6l-41.8-2.4c-0.2,4.3-0.3,8.3-0.1,12.1h-2.7c-0.9-4.2-1.6-8.3-2.1-12.4l-9.2-0.5V544l8.7-0.5
		c-1.1-10.1-1.4-20.2-0.8-30.3l-24.5-1.1c1.2,2.2,2.3,4.3,3.2,6.7c5.3,14.8,4,32.1,2.3,40h-2.9c-0.4-9.2-3.5-20.5-6.5-27.4
		c-6.8-15.9-22-30-47.4-46.4v20.4h-3c-8.5-26.8-29.5-41.7-60.9-57.8c-25.8-13.3-33.9-29.3-32.4-54l8.7,5.2
		c2.2,23.1,20,36.5,38.6,36.4c11-0.1,21.2-1.5,31.1-3.5c14.3-2.9,27.6-5.4,38.6-1.4v-13.7h-8.7c-3.1,2.7-9.4,5.8-18.7,5.9
		c-10.2,0.2-29.5-5.7-29.5-27.2c0-18.7,15.9-21.7,28.8-21.7c6.9,0,18.4-0.3,22.3-0.5c2.9-0.2,5.1-0.6,6.5-2c1.5-1.4,1.9-2.9,2.2-4.8
		c0.4-2.3,0.4-4.7,0.4-8.7v-13.7h-59.8v23.7l-22.6-8.6v-5.7h10.8v-9.4h-40.3v-19.7h-13.8c-7.4,0-15.8,5.1-16.4,15.1
		c-0.6,9.6,3.7,17.6,13.6,17.6h1.8v11.5h-1.8c-17.3,0-30.3-13-30.3-30.2c0-17.9,15.3-31.6,33.8-31.6h29.2v19.7h113.4v29.1
		c0,4.9-0.3,11.5-0.7,15.6c-0.3,3-1.4,8.5-7.1,12.8c-3.5,2.6-8.7,3.7-17.1,3.7c-6.8,0-13.6-0.3-20.4-0.7
		c-12.9-0.8-16.6,4.2-17.1,8.8c-0.1,1-0.1,1.9,0,2.8c6-4.7,14.6-8,24.4-4.9c17.1,5.4,22,5.9,30.9-1.1l0.9,2c-1,1.5-2.7,3.6-5.2,5.5
		h8.3v44.8l25.7-15.4h72.2l35.6,18.6c4.4,2.3,6.2,5.2,6.9,9.3c0.6,3.5-0.3,7.8-2,10.6c-1.1,1.7-9.4,15.3-13.7,22.6
		c13.2,14.3,20.5,33.1,20.6,52.6c0,18.8-6.9,43-29.5,60.9c8.7,2.7,16.2,8.2,21.2,15.8L-370.4,643.5">
  </path>
  <path class="st3" d="M-524.4,739.6h-13.7v-39.1h13c17.9,0,24.8,5.3,24.8,18.8C-500.2,733.8-509.2,739.6-524.4,739.6L-524.4,739.6z
		 M-525.5,661.9c10.8,0,18.2,2.3,18.2,13.9c0,12.3-9.9,15.7-21.1,15.7h-9.7v-29.7L-525.5,661.9L-525.5,661.9z M-503.7,694.9
		c9.7-1.6,19-9.1,19-20.5c0-10.3-4.4-21.6-34.7-21.6h-51.1v0.8c1.6,0.5,4,1.7,5.6,3.3c3.5,3.4,4.6,8.5,4.8,15.2v76.5h42.4
		c23.3,0,40.2-8.9,40.2-29.2C-477.6,702.9-490.5,695.8-503.7,694.9 M-647.6,661.9h14.9c12.4,0,18.9,3.6,18.9,16.8
		c0,11.8-8.5,18.7-22.1,18.7h-11.7V661.9z M-608.2,748.7h27.6l-35.3-45.1c14.1-3.8,24.7-11.5,24.7-25.6c0-16.5-9.9-25.2-35.7-25.2
		h-53.3v0.8c2,0.7,4.2,2,5.6,3.4c3.7,3.7,4.8,9.3,4.8,16.9v74.8h22.2v-42.5h8.1L-608.2,748.7 M-388.1,665.9c5.9,3.4,7.7,7.7,7.8,7.8
		c0.3,0.3,0.9,0.2,0.9,0.2l4.8-16.4c0,0-8.7-6.2-29.2-6.2c-31.2,0-54.5,15.7-54.5,50c0,38.7,27.8,48.8,52.3,48.8
		c22.8,0,31.7-7.2,31.7-7.2v-11.2c0,0-8,7.5-25.3,7.5c-14.3,0-35.2-6.5-35.6-38.3c-0.4-29.4,12.4-39,29.6-39
		C-396.1,661.9-391.3,664.1-388.1,665.9 M-306.1,760.4h1.8c2.3,0,3.3-0.3,4.1-0.9c0.7-0.7,1.1-1.7,1-2.7c0-1.7-0.6-2.8-1.9-3.3
		c-1-0.3-2-0.4-3-0.4h-2V760.4z M-301.4,748.7c4.8,0,8,3.2,8,7.9c0,4.1-2.7,7.4-6,7.5c0.5,0.5,0.8,0.7,1.1,1.2
		c1.5,1.9,6.4,10.5,6.4,10.5h-6.4c-1-1.8-1.5-2.5-2.5-4.5c-2.7-4.8-3.5-6.1-4.5-6.6c-0.3-0.1-0.5-0.2-0.9-0.2v11.2h-5.3v-27H-301.4z
		 M-303,743.1c-10.3,0-18.4,8.5-18.4,19.3s8.2,19.4,18.4,19.4c10.2,0,18.5-8.7,18.5-19.4S-292.8,743.1-303,743.1z M-303,786.4
		c-13.2,0-23.9-10.7-23.9-23.9c0,0,0-0.1,0-0.1c0-13.4,10.8-24.1,23.9-24.1c13.1,0,23.9,10.7,23.9,24.1c0.1,13.2-10.6,24-23.8,24
		C-302.9,786.4-302.9,786.4-303,786.4">
  </path>
 </g>
</svg>